<svg xmlns="http://www.w3.org/2000/svg" fill="none" viewBox="0 0 181 70" height="70" width="181">
<g clip-path="url(#clip0_3_1235)">
<path fill="#0F3B7C" d="M14.501 52.243C6.14203 52.243 0.00102759 46.101 0.00102759 37.57C-0.0637878 35.6458 0.266512 33.7286 0.971536 31.937C1.67656 30.1454 2.74134 28.5173 4.10014 27.1532C5.45894 25.7892 7.08292 24.7182 8.87181 24.0062C10.6607 23.2943 12.5765 22.9566 14.501 23.014C17.0514 23.0051 19.5796 23.4883 21.947 24.437V30.748C20.3011 29.386 18.2304 28.643 16.094 28.648C11.315 28.648 7.90803 32.456 7.90803 37.693C7.90803 42.978 11.315 46.618 16.208 46.618C18.5627 46.6097 20.8458 45.8083 22.689 44.343V50.255C20.179 51.6185 17.3568 52.3037 14.501 52.243Z"></path>
<path fill="#0F3B7C" d="M71.118 52.243C69.4905 52.3505 67.8638 52.0227 66.4051 51.2931C64.9463 50.5636 63.7082 49.4587 62.818 48.092C62.818 51.332 62.818 52.301 62.93 56.338C63.046 60.26 63.103 61.055 63.276 63.838C62.0598 63.5828 60.8183 63.4684 59.576 63.497C58.0716 63.4793 56.5685 63.5934 55.084 63.838C55.084 62.876 55.14 62.189 55.14 61.738C55.14 61.227 55.14 59.747 55.2 57.36L55.313 51.276L55.37 42.629L55.313 35.238C55.256 30.576 55.2 27.847 54.802 23.749C56.0191 23.9868 57.2569 24.1027 58.497 24.095C59.8504 24.096 61.2015 23.9802 62.535 23.749L62.479 27.503C65.267 24.203 67.654 23.013 71.348 23.013C78.854 23.013 84.203 29.04 84.203 37.513C84.197 46.101 78.736 52.243 71.118 52.243ZM69.241 28.643C66.511 28.643 64.519 29.836 62.813 32.398V35.921C62.813 43.314 64.859 46.613 69.413 46.613C73.733 46.613 76.35 43.369 76.35 37.913C76.349 32.111 73.678 28.643 69.241 28.643Z"></path>
<path fill="#0F3B7C" d="M101.938 29.154C98.752 29.154 95.7381 31.203 93.5791 34.784C93.5241 37.175 93.4621 38.14 93.4621 39.844C93.4621 44.112 93.5791 46.957 93.9181 51.444C92.5073 51.2297 91.0808 51.1354 89.6541 51.162C88.3207 51.1392 86.9879 51.2336 85.6711 51.444C86.0474 47.6279 86.1993 43.793 86.1261 39.959C86.1261 37.113 86.0721 34.898 85.8991 29.777C85.7871 26.824 85.7871 26.138 85.5551 23.748C86.7181 23.9701 87.899 24.0859 89.0831 24.094C90.2665 24.0813 91.4467 23.9655 92.6101 23.748C92.8101 25.3324 92.9056 26.9281 92.8961 28.525V29.038C94.8291 25.625 96.7601 23.975 99.6611 23.296C100.65 23.0737 101.663 22.9779 102.676 23.011C103.476 22.9906 104.275 23.0479 105.064 23.182V29.89C104.09 29.415 103.022 29.1636 101.938 29.154Z"></path>
<path fill="#0F3B7C" d="M130.714 38.026H111.094C111.321 41.95 112.116 43.659 114.445 45.191C116.287 46.3844 118.452 46.9805 120.645 46.898C123.857 46.9839 127.01 46.026 129.631 44.168V49.968C126.344 51.5197 122.745 52.2982 119.11 52.244C109.555 52.244 103.471 46.557 103.471 37.689C103.471 28.989 109.271 23.015 117.689 23.015C125.589 23.015 130.767 28.248 130.767 36.323C130.768 36.718 130.714 37.29 130.714 38.026ZM117.914 28.191C114.501 28.191 112.457 29.891 111.319 33.705H123.885C123.433 30.125 121.27 28.19 117.915 28.19L117.914 28.191Z"></path>
<path fill="#0F3B7C" d="M142.2 52.243C138.427 52.2801 134.695 51.4638 131.282 49.855V44.79C134.547 46.3524 138.125 47.1493 141.744 47.12C145.215 47.12 147.374 45.755 147.374 43.597C147.374 42.003 146.065 40.924 143.28 40.353L139.928 39.672C136.741 39.047 134.638 38.194 133.215 36.996C132.47 36.3215 131.876 35.4962 131.474 34.5749C131.072 33.6536 130.87 32.6573 130.882 31.652C130.882 26.252 135.434 23.009 142.94 23.009C146.545 23.0103 150.117 23.7049 153.46 25.055V30.512C150.49 28.7222 147.087 27.7795 143.62 27.786C140.55 27.786 138.673 28.92 138.673 30.857C138.673 32.393 139.81 33.242 142.709 33.871C149.25 35.292 150.901 35.858 152.719 37.452C153.428 38.1233 153.988 38.937 154.361 39.8398C154.733 40.7425 154.911 41.7138 154.882 42.69C154.882 48.433 149.764 52.243 142.2 52.243Z"></path>
<path fill="#0F3B7C" d="M167.391 52.243C163.618 52.2804 159.886 51.4637 156.474 49.854V44.79C159.739 46.3533 163.317 47.1502 166.937 47.12C170.406 47.12 172.567 45.755 172.567 43.597C172.567 42.003 171.258 40.924 168.474 40.353L165.119 39.672C161.932 39.047 159.83 38.194 158.41 36.996C157.664 36.322 157.07 35.4969 156.667 34.5755C156.265 33.654 156.063 32.6574 156.076 31.652C156.076 26.252 160.623 23.009 168.132 23.009C171.738 23.0105 175.31 23.7051 178.654 25.055V30.512C175.685 28.7219 172.281 27.7792 168.814 27.786C165.743 27.786 163.866 28.92 163.866 30.857C163.866 32.393 165.004 33.242 167.904 33.871C174.444 35.292 176.095 35.858 177.913 37.452C178.621 38.1226 179.18 38.9351 179.552 39.8363C179.925 40.7375 180.103 41.7072 180.075 42.682C180.074 48.433 174.955 52.243 167.391 52.243Z"></path>
<path fill="#0F3B7C" d="M51.873 29.685C51.6312 27.6961 51.0543 25.7624 50.167 23.966C45.995 15.628 36.721 11.95 36.167 0.00201416C36.167 0.00201416 31.688 7.98601 37.105 18.547C39.126 22.4647 40.0257 26.8645 39.705 31.261H39.728C42.825 30.931 47.443 30.329 51.873 29.685Z"></path>
<path fill="#0F3B7C" d="M31.821 21.045C29.3743 24.5199 27.4107 28.3109 25.984 32.314C27.335 32.247 29.262 32.127 30.752 32.03C30.618 28.01 30.871 23.682 31.821 21.045Z"></path>
<path fill="#0F3B7C" d="M38.744 36.634C38.1001 39.2916 36.8359 41.759 35.055 43.834C34.6616 43.8418 34.2718 43.7575 33.9167 43.5879C33.5617 43.4182 33.2512 43.168 33.01 42.857C32.4582 42.2113 32.0522 41.4541 31.82 40.637C31.5111 39.5446 31.2914 38.429 31.163 37.301L30.138 37.384C28.279 37.534 26.197 37.702 24.57 37.794C24.2241 39.7892 24.138 41.8208 24.314 43.838C25.429 55.087 37.065 65.861 37.635 70C37.635 70 39.274 68.213 42.696 59.235C42.7164 59.1539 42.72 59.0695 42.7065 58.987C42.6931 58.9044 42.663 58.8255 42.618 58.755C42.518 58.663 41.939 58.755 41.939 58.755L36.466 59.734L37.036 58.598C37.1405 58.4264 37.2075 58.2346 37.2329 58.0353C37.2582 57.8359 37.2412 57.6335 37.1829 57.4411C37.1247 57.2488 37.0266 57.0709 36.8949 56.9191C36.7633 56.7673 36.6011 56.6449 36.419 56.56L31.397 52.419L32.341 52.054C33.335 51.836 32.92 50.565 32.92 50.565L32.105 47.719C35.985 48.999 35.76 47.878 35.76 47.878L36.287 46.61C37.1146 47.5951 38.0108 48.5204 38.969 49.379C39.869 50.056 39.641 49.006 39.641 49.006L38.233 42.66L40.696 44.23L43.02 39.982L45.326 44.239L47.792 42.679L46.36 49.021C46.36 49.021 46.134 50.066 47.03 49.396C47.2295 49.2393 47.4207 49.0724 47.603 48.896C49.7711 44.4425 51.2204 39.6738 51.897 34.767C47.479 35.458 42.236 36.225 38.744 36.634Z"></path>
<path fill="#0F3B7C" d="M51.965 30.662C47.678 31.289 43.212 31.871 40.118 32.205L39.607 32.262C39.4902 33.3913 39.2896 34.5104 39.007 35.61C42.543 35.186 47.683 34.436 51.984 33.768C52.0498 32.7335 52.0434 31.6956 51.965 30.662Z"></path>
<path fill="#0F3B7C" d="M31.043 36.326C30.933 35.297 30.843 34.174 30.787 33.011C29.143 33.118 27.002 33.248 25.655 33.311C25.2906 34.456 24.9875 35.6197 24.747 36.797C26.327 36.703 28.292 36.544 30.054 36.402L31.043 36.326Z"></path>
<path fill="#0F3B7C" d="M75.559 56.664V58.064H75.597C75.8707 57.5578 76.2812 57.1388 76.7816 56.8546C77.2819 56.5705 77.8521 56.4327 78.427 56.457C79.0167 56.4204 79.6046 56.552 80.1225 56.8365C80.6403 57.121 81.0666 57.5467 81.352 58.064C81.6535 57.6343 82.0414 57.2722 82.4907 57.0008C82.94 56.7294 83.441 56.5547 83.9617 56.4878C84.4823 56.4209 85.0112 56.4632 85.5145 56.6122C86.0179 56.7612 86.4847 57.0135 86.885 57.353C87.1993 57.7587 87.4282 58.2238 87.5581 58.7203C87.688 59.2167 87.7162 59.7343 87.641 60.242V67.054H83.693V60.81C83.693 60.139 83.775 59.386 82.84 59.386C81.7 59.386 81.74 60.446 81.74 61.281V67.055H77.795V60.811C77.795 60.161 77.755 59.327 76.878 59.327C75.925 59.327 75.843 60.039 75.843 60.811V67.055H71.895V56.664H75.559Z"></path>
<path fill="#0F3B7C" d="M100.742 61.954C100.742 65.108 98.2 67.264 95.025 67.264C91.85 67.264 89.31 65.108 89.31 61.954C89.3717 60.4794 90.0009 59.0856 91.0661 58.0641C92.1313 57.0425 93.5501 56.4721 95.026 56.4721C96.5019 56.4721 97.9207 57.0425 98.9859 58.0641C100.051 59.0856 100.68 60.4794 100.742 61.954ZM93.621 61.81C93.621 64.597 94.293 64.803 95.021 64.803C95.749 64.803 96.428 64.597 96.428 61.81C96.428 60.81 96.405 59.002 95.021 59.002C93.637 59.002 93.623 60.812 93.623 61.81H93.621Z"></path>
<path fill="#0F3B7C" d="M108.685 67.056V65.348H108.639C108.389 65.9634 107.947 66.4819 107.379 66.8268C106.811 67.1716 106.148 67.3246 105.486 67.263C104.639 67.3042 103.809 67.0177 103.167 66.463C102.856 66.1062 102.623 65.6884 102.483 65.2364C102.343 64.7844 102.299 64.3081 102.353 63.838V56.659H106.381V62.946C106.381 63.617 106.359 64.328 107.281 64.328C107.482 64.3289 107.679 64.2744 107.85 64.1704C108.022 64.0665 108.162 63.9172 108.254 63.739C108.412 63.3949 108.481 63.0166 108.454 62.639V56.658H112.486V67.056H108.685Z"></path>
<path fill="#0F3B7C" d="M119.183 56.664V58.131H119.226C119.49 57.5858 119.913 57.1338 120.44 56.8353C120.967 56.5368 121.573 56.4059 122.176 56.46C122.679 56.4293 123.182 56.5098 123.65 56.696C124.118 56.8822 124.54 57.1693 124.884 57.537C125.43 58.4785 125.658 59.5707 125.535 60.652V67.052H121.501V60.752C121.501 60.122 121.501 59.246 120.627 59.246C119.51 59.246 119.409 60.205 119.409 61.059V67.059H115.38V56.664H119.183Z"></path>
<path fill="#0F3B7C" d="M127.183 59.308V56.664H128.87L129.177 53.347L132.677 53.223V56.664H134.75V59.308H132.717V62.889C132.717 63.64 132.636 64.23 133.593 64.23C133.985 64.2203 134.374 64.1598 134.75 64.05V66.961L132.372 67.261C131.837 67.337 131.291 67.2799 130.784 67.0948C130.276 66.9098 129.822 66.6024 129.461 66.2C129.139 65.7827 128.904 65.3046 128.771 64.7944C128.639 64.2842 128.61 63.7524 128.688 63.231V59.306L127.183 59.308Z"></path>
<path fill="#0F3B7C" d="M143.685 67.056C143.585 66.5823 143.537 66.0991 143.542 65.615C143.17 66.1637 142.659 66.6047 142.063 66.894C141.466 67.1833 140.803 67.3105 140.142 67.263C138.213 67.263 136.521 66.202 136.521 64.129C136.565 63.3722 136.856 62.6506 137.348 62.0741C137.84 61.4975 138.508 61.0976 139.248 60.935C140.58 60.5558 141.953 60.3376 143.337 60.285V60.204C143.337 59.264 143.094 58.904 142.117 58.904C141.325 58.904 140.651 59.186 140.531 60.062L136.831 59.717C137.437 57.134 139.901 56.462 142.243 56.462C143.57 56.3857 144.891 56.6985 146.043 57.362C147.404 58.32 147.243 59.662 147.243 61.146V64.789C147.198 65.5612 147.309 66.3345 147.569 67.063L143.685 67.056ZM143.337 62.198C142.362 62.298 140.732 62.604 140.732 63.866C140.732 64.538 141.163 64.821 141.793 64.821C143.316 64.821 143.338 63.538 143.338 62.401L143.337 62.198Z"></path>
<path fill="#0F3B7C" d="M153.717 55.664H149.69V52.899H153.717V55.664ZM153.717 67.056H149.69V56.664H153.717V67.056Z"></path>
<path fill="#0F3B7C" d="M160.287 56.664V58.131H160.329C160.594 57.5859 161.018 57.1341 161.545 56.8357C162.073 56.5372 162.678 56.4062 163.282 56.46C163.784 56.4296 164.286 56.5104 164.752 56.6966C165.219 56.8827 165.639 57.1697 165.982 57.537C166.529 58.4781 166.758 59.5704 166.635 60.652V67.052H162.605V60.752C162.605 60.122 162.605 59.246 161.731 59.246C160.611 59.246 160.511 60.205 160.511 61.059V67.059H156.484V56.664H160.287Z"></path>
</g>
<defs>
<clipPath id="clip0_3_1235">
<rect fill="white" height="70" width="180.074"></rect>
</clipPath>
</defs>
</svg>
