<?xml version="1.0" encoding="UTF-8"?><svg id="Layer_1" xmlns="http://www.w3.org/2000/svg" xmlns:xlink="http://www.w3.org/1999/xlink" viewBox="0 0 500 500"><defs><style>.cls-1{fill:#fff;}.cls-2{fill:#231f20;}</style><symbol id="Double_Black" viewBox="0 0 14.4 9.87"><polygon class="cls-1" points="4.93 9.47 .4 4.93 4.93 .4 7 2.47 7.2 2.27 4.93 0 0 4.93 4.93 9.87 7.2 7.6 7 7.4 4.93 9.47"/><polygon class="cls-1" points="4.93 9.07 .8 4.93 4.93 .8 6.8 2.67 7 2.47 4.93 .4 .4 4.93 4.93 9.47 7 7.4 6.8 7.2 4.93 9.07"/><polygon class="cls-2" points="7.4 7 7.6 7.2 9.87 4.93 7.6 2.67 7.4 2.86 9.47 4.93 7.4 7"/><polygon class="cls-1" points="14.4 4.93 9.47 0 7.2 2.27 7.4 2.47 9.47 .4 14 4.93 9.47 9.47 7.4 7.4 7.2 7.6 9.47 9.87 14.4 4.93"/><polygon class="cls-2" points="7 2.86 6.8 2.67 4.53 4.93 6.8 7.2 7 7 4.93 4.93 7 2.86"/><polygon class="cls-1" points="7.2 2.67 7.4 2.47 7.2 2.27 7 2.47 7.2 2.67"/><polygon class="cls-1" points="7.2 7.2 7 7.4 7.2 7.6 7.4 7.4 7.2 7.2"/><polygon class="cls-1" points="7 2.86 7.2 2.67 7 2.47 6.8 2.67 7 2.86"/><polygon class="cls-1" points="6.8 7.2 7 7.4 7.2 7.2 7 7 6.8 7.2"/><polygon class="cls-1" points="9.47 .8 13.6 4.93 9.47 9.07 7.6 7.2 7.4 7.4 9.47 9.47 14 4.93 9.47 .4 7.4 2.47 7.6 2.67 9.47 .8"/><polygon class="cls-2" points="6.8 2.67 4.93 .8 .8 4.93 4.93 9.07 6.8 7.2 4.53 4.93 6.8 2.67"/><polygon class="cls-2" points="9.47 .8 7.6 2.67 9.87 4.93 7.6 7.2 9.47 9.07 13.6 4.93 9.47 .8"/><polygon class="cls-2" points="7.4 2.86 7.2 3.06 7 2.86 4.93 4.93 7 7 7.2 6.8 7.4 7 9.47 4.93 7.4 2.86"/><polygon class="cls-1" points="7.4 7 7.2 7.2 7.4 7.4 7.6 7.2 7.4 7"/><polygon class="cls-1" points="7.4 2.86 7.6 2.67 7.4 2.47 7.2 2.67 7.4 2.86"/><polygon class="cls-1" points="7.2 3.06 7.4 2.86 7.2 2.67 7 2.86 7.2 3.06"/><polygon class="cls-1" points="7.2 6.8 7 7 7.2 7.2 7.4 7 7.2 6.8"/></symbol></defs><use width="14.4" height="9.87" transform="translate(94.84 143.7) scale(21.55)" xlink:href="#Double_Black"/></svg>