<svg width="290" height="143" xmlns="http://www.w3.org/2000/svg"><g fill="none" fill-rule="evenodd"><path d="M142.92 7.077c-9.418-9.435-24.83-9.435-34.237 0l-24.126 24.2-6.754 6.773-42.44 42.567c5.063 4.994 12 8.072 19.66 8.072.318 0 .636-.003.95-.01 17.637-2.035 36.791-3.148 56.814-3.148 27.498 0 53.332 2.114 75.89 5.803 0 0 .903.029 8.473 1.433 7.571 1.409 8.177 1.706 8.177 1.706 13.347 2.876 25.18 6.344 34.982 10.296l-97.39-97.692" fill="none"/><path d="m114.973 47.128 2.694-2.677-.06-.073L129.275 32.7c4.037-4.047 10.653-4.047 14.694 0l61.654 61.84c13.23 2.86 24.956 6.302 34.684 10.229L142.92 7.077c-9.418-9.436-24.83-9.436-34.237 0l-24.126 24.2-.06.066 15.744 15.785c4.06 4.072 10.672 4.072 14.732 0" fill="#0096D5"/><path d="M277.495 133.047A43417.69 43417.69 0 0 1 290 143h-10.886s-10.727-9.694-11.017-9.953h-5.318V143h-7.37v-27.381h24.194c2.312 0 3.962.43 5.037 1.317 1.098.897 1.65 2.347 1.65 4.307v6.242c0 1.935-.552 3.372-1.65 4.257-1.075.876-2.725 1.305-5.037 1.305h-2.108Zm-14.716-5.57h14.098c1.297 0 1.788-.233 1.965-.376.282-.221.426-.637.426-1.238v-3.062c0-.602-.144-1.018-.424-1.24-.179-.14-.67-.38-1.967-.38h-14.098v6.296Zm-24.834-11.858v21.39H220.76v-21.39h-7.445v20.61c0 2.596.517 4.336 1.584 5.319 1.049.972 2.952 1.452 5.794 1.452h17.323c2.855 0 4.766-.48 5.839-1.467 1.087-.997 1.612-2.734 1.612-5.304v-20.61h-7.522Zm-36.248 1.46c1.03.986 1.541 2.72 1.541 5.298v13.833c0 2.6-.517 4.347-1.58 5.332-1.05.978-2.936 1.458-5.776 1.458H175.55c-2.858 0-4.751-.48-5.796-1.461-1.053-.984-1.554-2.728-1.554-5.329v-13.833c0-2.579.501-4.316 1.554-5.303 1.045-.978 2.938-1.455 5.796-1.455h20.33c2.881 0 4.78.477 5.816 1.46Zm-26.052 19.79h20.145v-15.333h-20.145v15.332Zm-22.209-21.25s-11.816 14.407-12.566 15.328c-.758-.92-12.604-15.328-12.604-15.328h-5.908V143h6.183v-16.757l11.11 13.593h1.744s9.367-11.954 10.947-13.973V143h7.026v-27.381h-5.932Zm-43.867 0s-8.574 8.872-9.275 9.586l-9.154-9.586H81.013s14.793 14.94 15.086 15.242V143h7.448v-12.257l15.028-15.124h-9.006Zm-53.521 21.39v-5.378h12.669v-5.565h-12.67v-4.739h21.748v-5.708H48.527V143h29.62v-5.991h-22.1ZM35.047 124.08c-1.217-1.182-3.422-1.754-6.745-1.754H8.855v-5.872H28.79v3.81l7.66-1.807v-1.086c0-2.79-.64-4.783-1.897-5.916-1.258-1.14-3.42-1.697-6.605-1.697H9.76c-3.297 0-5.489.58-6.694 1.772-1.21 1.187-1.798 3.279-1.798 6.388v3.563c0 3.092.587 5.167 1.798 6.35 1.205 1.178 3.397 1.754 6.694 1.754h19.446v6.296H7.656v-3.936L0 133.537v1.31c0 3.104.59 5.193 1.805 6.382C3.022 142.418 5.21 143 8.517 143h19.785c3.323 0 5.535-.582 6.745-1.771 1.231-1.19 1.821-3.278 1.821-6.381v-4.418c0-3.09-.597-5.167-1.821-6.35ZM23.524 91.97H37.51v2.898h-5.208v8.867h-3.568v-8.867h-5.211v-2.897Zm-11.426 5.297 5.823-7.65h3.161v14.118h-3.78v-8.088c-.365.481-4.888 6.5-4.888 6.5h-1.086s-4.148-5.523-4.95-6.595v8.183H2.957V89.616h3.18l5.962 7.651Zm125.26-42.807c4.025-4.068 10.655-4.068 14.698 0l36.782 36.89-.161-.016c-22.559-3.69-48.392-5.803-75.89-5.803-20.022 0-39.177 1.114-56.815 3.148-.312.006-.631.01-.949.01-7.66 0-14.597-3.078-19.66-8.072l42.334-42.466 30.648 30.736c4.041 4.044 10.656 4.044 14.697 0l9.742-9.752-.054-.076 4.629-4.6Z" fill="#005596"/></g></svg>
